<?xml version="1.0" standalone="no"?>
<!DOCTYPE svg PUBLIC "-//W3C//DTD SVG 20010904//EN"
 "http://www.w3.org/TR/2001/REC-SVG-20010904/DTD/svg10.dtd">
<svg version="1.0" xmlns="http://www.w3.org/2000/svg"
 width="310.000000pt" height="310.000000pt" viewBox="0 0 310.000000 310.000000"
 preserveAspectRatio="xMidYMid meet">
<metadata>
Created by potrace 1.11, written by Peter Selinger 2001-2013
</metadata>
<g transform="translate(0.000000,310.000000) scale(0.100000,-0.100000)"
fill="#000000" stroke="none">
<path d="M1335 3085 c-229 -37 -409 -101 -585 -208 -375 -230 -627 -589 -722
-1030 -32 -150 -32 -436 1 -592 105 -509 434 -919 902 -1125 130 -57 252 -92
414 -117 63 -9 310 -10 390 -1 144 16 297 58 438 120 216 94 463 283 585 447
15 20 29 38 32 41 12 10 99 147 125 195 82 154 142 338 169 520 15 98 15 363
1 445 -58 330 -199 615 -417 841 -230 239 -503 386 -843 455 -104 21 -382 26
-490 9z"/>
</g>
</svg>
